<svg width="58" height="33" viewBox="0 0 58 33" fill="none" xmlns="http://www.w3.org/2000/svg">
<path d="M8.09654 0.598911L8.36543 4.22232C10.656 1.40744 13.7532 0 17.657 0C21.8198 0 24.678 1.64701 26.2316 4.94102C28.5022 1.64701 31.7388 0 35.9415 0C39.447 0 42.0562 1.02813 43.7691 3.08439C45.4821 5.12069 46.3385 8.1951 46.3385 12.3076V33H37.6743V12.3376C37.6743 10.5009 37.3158 9.16334 36.5988 8.32486C35.8817 7.46643 34.617 7.03721 32.8044 7.03721C30.2151 7.03721 28.4225 8.27495 27.4267 10.7505L27.4565 33H18.8222V12.3675C18.8222 10.4909 18.4537 9.13339 17.7168 8.29492C16.9798 7.45644 15.725 7.03721 13.9523 7.03721C11.5025 7.03721 9.72979 8.05536 8.63432 10.0917V33H0V0.598911H8.09654Z" fill="white"/>
<path d="M50.612 17.578C50.612 22.4292 52.0959 26.3122 55.0637 29.2269C55.1519 29.313 55.241 29.3979 55.3308 29.4814C59.8938 18.3059 57.6315 8.15679 55.6989 3.66917C54.4 4.85444 53.3318 6.30653 52.4943 8.02541C51.2395 10.5808 50.612 13.4855 50.612 16.7396V17.578Z" fill="white"/>
</svg>
